<?xml version="1.0" standalone="no"?>
<!DOCTYPE svg PUBLIC "-//W3C//DTD SVG 20010904//EN"
 "http://www.w3.org/TR/2001/REC-SVG-20010904/DTD/svg10.dtd">
<svg version="1.0" xmlns="http://www.w3.org/2000/svg"
 width="1000.000000pt" height="1000.000000pt" viewBox="0 0 1000.000000 1000.000000"
 preserveAspectRatio="xMidYMid meet">
<metadata>
Created by potrace 1.15, written by Peter Selinger 2001-2017
</metadata>
<g transform="translate(0.000000,1000.000000) scale(0.100000,-0.100000)"
fill="#000000" stroke="none">
<path d="M0 5000 l0 -5000 5000 0 5000 0 0 5000 0 5000 -5000 0 -5000 0 0
-5000z m5310 4810 c1071 -68 2061 -471 2867 -1168 1589 -1375 2099 -3622 1261
-5557 -409 -945 -1124 -1742 -2026 -2259 -1564 -896 -3511 -837 -5022 151
-548 359 -1034 845 -1393 1393 -1046 1599 -1046 3671 0 5270 415 633 981 1166
1641 1544 807 462 1752 683 2672 626z"/>
<path d="M4755 9280 c-999 -67 -1920 -459 -2655 -1132 -690 -631 -1163 -1499
-1324 -2433 -45 -263 -59 -437 -59 -730 0 -567 94 -1064 300 -1585 551 -1393
1790 -2398 3268 -2654 263 -45 437 -59 730 -59 293 0 467 14 730 59 934 161
1802 634 2433 1324 636 694 1015 1540 1118 2490 23 211 23 639 0 850 -45 416
-135 786 -283 1160 -590 1491 -1961 2529 -3563 2695 -184 19 -526 26 -695 15z
m-1040 -1139 c148 -42 258 -106 363 -213 99 -100 152 -187 198 -325 22 -65 27
-102 31 -218 l5 -140 682 -233 c374 -128 751 -257 836 -287 85 -29 164 -56
176 -59 18 -5 23 0 34 36 21 71 74 169 133 243 95 122 224 211 384 265 93 32
106 34 238 34 148 0 208 -11 328 -59 158 -65 318 -214 403 -377 54 -105 76
-195 81 -333 6 -144 -12 -248 -60 -357 -99 -224 -304 -398 -547 -464 -100 -27
-301 -25 -404 4 -139 40 -249 104 -351 207 -50 49 -100 103 -110 118 l-20 29
-330 -162 c-181 -90 -454 -223 -605 -297 -151 -74 -408 -200 -571 -280 l-296
-145 -6 -107 c-2 -58 -2 -109 2 -112 6 -6 582 -205 1126 -389 127 -43 329
-112 450 -154 l220 -76 24 33 c78 104 223 208 356 256 113 41 208 55 325 48
209 -13 383 -92 528 -239 99 -100 152 -187 198 -325 38 -113 45 -302 16 -424
-60 -250 -221 -446 -456 -554 -117 -55 -185 -69 -331 -69 -156 0 -241 20 -377
91 -143 73 -303 240 -357 371 -8 18 -17 32 -22 32 -4 0 -151 -70 -326 -156
-175 -86 -390 -191 -478 -234 -88 -43 -320 -156 -516 -252 l-355 -175 -13 -69
c-47 -266 -218 -485 -465 -599 -117 -55 -185 -69 -331 -69 -105 0 -145 4 -209
22 -284 81 -503 304 -576 587 -29 110 -29 280 0 390 71 277 267 486 540 575
l100 33 0 358 0 357 -72 18 c-225 55 -438 231 -539 447 -72 154 -92 367 -49
532 67 264 255 474 504 563 45 17 99 34 119 37 l37 7 0 338 0 338 -72 18
c-225 55 -438 231 -539 447 -72 154 -92 367 -49 532 68 265 255 473 506 564
48 18 110 36 138 41 80 14 270 4 351 -19z"/>
<path d="M4197 6944 c-104 -178 -315 -330 -519 -375 l-58 -12 0 -337 0 -337
58 -12 c151 -34 289 -111 401 -224 67 -68 142 -176 163 -233 7 -19 17 -34 23
-34 5 0 143 66 305 146 162 80 322 158 355 174 33 15 236 114 450 220 215 105
448 219 518 253 113 53 128 63 122 81 -3 12 -8 51 -12 88 l-6 67 -56 20 c-31
10 -200 69 -376 129 -920 316 -1318 452 -1324 452 -3 0 -23 -30 -44 -66z"/>
<path d="M4179 4633 c-114 -167 -311 -302 -501 -344 l-58 -12 0 -356 0 -356
66 -13 c253 -48 483 -236 584 -479 17 -39 30 -79 30 -88 0 -8 6 -18 13 -21 7
-2 199 87 427 199 478 235 756 371 1026 502 l191 93 2 86 c0 48 8 116 16 153
9 37 12 70 8 73 -5 4 -48 21 -98 38 -49 16 -234 80 -410 140 -815 280 -1259
432 -1261 432 -2 0 -18 -21 -35 -47z"/>
</g>
</svg>
